<svg xmlns="http://www.w3.org/2000/svg" version="1.1" xmlns:xlink="http://www.w3.org/1999/xlink" width="1000" height="1000"><g clip-path="url(#SvgjsClipPath1085)"><rect width="1000" height="1000" fill="#ffffff"></rect><g transform="matrix(1.6151883078825804,0,0,1.6151883078825804,165.6705569630768,150.00000000000003)"><svg xmlns="http://www.w3.org/2000/svg" version="1.1" xmlns:xlink="http://www.w3.org/1999/xlink" width="413.982" height="433.386"><svg version="1.1" id="Слой_1" xmlns="http://www.w3.org/2000/svg" xmlns:xlink="http://www.w3.org/1999/xlink" x="0px" y="0px" viewBox="0 0 413.982 433.386" style="enable-background:new 0 0 413.982 433.386;" xml:space="preserve">
<path style="fill-rule:evenodd;clip-rule:evenodd;" d="M-0.202,433.401h79.344V70.467h148.369c42.184,0,76.698,34.514,76.698,76.698
	v11.793c0,41.978-34.345,76.323-76.323,76.323h-40.794h-57.68l176.187,198.12H413.78L284.603,288.143
	c45.903-10.579,101.988-66.087,101.988-132.445v-10.706c0-79.737-65.239-144.977-144.977-144.977H79.142H44.12H-0.202V433.401z"></path>
</svg></svg></g></g><defs><clipPath id="SvgjsClipPath1085"><rect width="1000" height="1000" x="0" y="0" rx="0" ry="0"></rect></clipPath></defs></svg>