<svg xmlns="http://www.w3.org/2000/svg" viewBox="0 0 346 114">
<path fill="#ffffff" d="M168.577-0.276c32.148,0,58.21,25.6,58.21,57.178
	c0,31.579-26.062,57.178-58.21,57.178c-32.149,0-58.211-25.599-58.211-57.178C110.366,25.323,136.428-0.276,168.577-0.276
	 M303.06,17.063c10.587,0,20.237,3.903,27.51,10.308l13.552-11.311c-10.61-10.104-25.138-16.337-41.166-16.337
	c-32.491,0-58.83,25.6-58.83,57.178c0,31.579,26.339,57.178,58.83,57.178c17.108,0,32.508-7.101,43.258-18.432l-14.117-10.631
	c-7.421,7.242-17.69,11.724-29.036,11.724c-22.635,0-40.985-17.837-40.985-39.839C262.074,34.899,280.424,17.063,303.06,17.063z
	 M168.576,17.063c21.935,0,39.717,17.836,39.717,39.839c0,22.003-17.782,39.839-39.717,39.839
	c-21.936,0-39.718-17.837-39.718-39.839C128.859,34.899,146.641,17.063,168.576,17.063z"/>
<path fill="#ffffff" d="M18.412-0.276h35.881c19.326,0,35.139,15.812,35.139,35.139v1.849
	c0,15.043-9.58,27.955-22.94,32.94c12.682,14.833,25.398,29.634,38.124,44.427H78.956l-49.2-57.544h6.643h16.556
	c11.119,0,20.217-9.097,20.217-20.217v-1.064c0-11.119-9.098-20.217-20.217-20.217H18.412v99.041H-0.08V-0.276h3.427H18.412z"/>
</svg>
